# xmcd CD database file generated by Grip 3.3.0
# 
# Track frame offsets:
#       150
#       13076
#       31197
#       47206
#       67577
#       88009
#       104679
#       124720
#       139486
#       155669
#       176653
#       194447
#       214002
#       235739
# 
# Disc length: 3429 seconds
# 
# Revision: 1
# Processed by: cddbd v1.5.1PL2 Copyright (c) Steve Scherf et al.
# Submitted via: Grip 3.3.0
# 
DISCID=c30d630e
DTITLE=Simeon - Vejdi dal
DYEAR=2000
DGENRE=Folk
TTITLE0=Vejdi dal
TTITLE1=Ved mne, Pane muj
TTITLE2=S kazdym trapenim
TTITLE3=Ty jsi Pan-V Hospodinovych rukou
TTITLE4=Vsechno, co by sis pral
TTITLE5=Nadherny
TTITLE6=Simeon
TTITLE7=Hospodinu dobrorecit budu
TTITLE8=Modlitba
TTITLE9=Neni vzdy slunce na obloze
TTITLE10=Kdopak je nam nejdrazsi
TTITLE11=Zpivat pisen lasky smim
TTITLE12=Dobrorec duse ma Hospodinu
TTITLE13=Ty jsi jediny Buh
EXTD=
EXTT0=
EXTT1=
EXTT2=
EXTT3=
EXTT4=
EXTT5=
EXTT6=
EXTT7=
EXTT8=
EXTT9=
EXTT10=
EXTT11=
EXTT12=
EXTT13=
PLAYORDER=
